<?xml version="1.0" encoding="UTF-8"?>
<svg id="Layer_1" data-name="Layer 1" xmlns="http://www.w3.org/2000/svg" viewBox="0 0 658.77 445.19">
  <defs>
    <style>
      .cls-1 {
        fill: #20295b;
      }

      .cls-2 {
        fill: #74c9bd;
      }

      .cls-3 {
        fill: #39a3db;
      }

      .cls-4 {
        fill: #0b2241;
      }
    </style>
  </defs>
  <path class="cls-3" d="m604.35,361.85c-30.64,1.2-55.77-25.86-55.38-53.94.42-30.51,23.87-53.82,54.46-54.24,30.71-.43,55.45,25.74,55.34,54-.12,28.61-24.98,55.85-54.41,54.18Zm27.75-51.15c.04-5.76.23-11.53.06-17.28-.09-3.19.98-6.51-.73-9.59-5.2-3.42-11.58-3.39-17.1-5.86-7.13-3.19-14.14-3.02-21.35-.09-4.1,1.67-8.43,2.89-12.76,3.84-3.1.68-3.96,2.18-3.91,5.16.13,8.47-.21,16.95.02,25.41.34,12.63,8.15,20.05,18.08,26.57,9.53,6.27,16.75,1.55,24.39-3.13.56-.35,1.16-.66,1.67-1.08,7.48-6.23,12.35-13.74,11.63-23.96Z"/>
  <path class="cls-4" d="m632.11,310.7c.72,10.22-4.15,17.72-11.63,23.96-.5.42-1.1.73-1.67,1.08-7.64,4.67-14.86,9.39-24.39,3.13-9.92-6.52-17.73-13.94-18.08-26.57-.23-8.46.11-16.94-.02-25.41-.05-2.98.81-4.48,3.91-5.16,4.33-.95,8.66-2.18,12.76-3.84,7.21-2.93,14.21-3.11,21.35.09,5.51,2.47,11.9,2.44,17.1,5.86-.04,3.44-.24,6.89-.07,10.33.28,5.51-.84,11.09.74,16.54Zm-2.87-10.04h-.05c0-3.82-.16-7.66.05-11.47.14-2.57-.58-3.78-3.24-4.48-6.51-1.71-12.91-3.85-19.36-5.81-2.06-.63-4.02-.58-6.14.12-5.46,1.79-10.98,3.46-16.56,4.85-3.37.84-4.92,2.19-4.71,6.02.37,6.96.26,13.97.04,20.95-.14,4.31,1.05,8.11,3.03,11.81,4.22,7.9,11.36,12.27,19.14,15.84,1.17.54,2.56.76,3.89.29,12.22-4.39,24.66-12.92,23.92-29.64-.12-2.82-.02-5.65-.02-8.48Z"/>
  <path class="cls-1" d="m632.11,310.7c-1.58-5.45-.46-11.03-.74-16.54-.17-3.43.03-6.88.07-10.33,1.71,3.08.64,6.4.73,9.59.17,5.76-.02,11.52-.06,17.28Z"/>
  <path class="cls-2" d="m629.24,300.67c0,2.83-.11,5.66.02,8.48.74,16.72-11.7,25.25-23.92,29.64-1.33.48-2.72.25-3.89-.29-7.78-3.57-14.92-7.94-19.14-15.84-1.97-3.7-3.16-7.5-3.03-11.81.22-6.98.33-13.98-.04-20.95-.2-3.83,1.34-5.18,4.71-6.02,5.58-1.39,11.09-3.06,16.56-4.85,2.13-.7,4.08-.75,6.14-.12,6.45,1.96,12.85,4.09,19.36,5.81,2.66.7,3.38,1.91,3.24,4.48-.21,3.81-.05,7.65-.05,11.47h.05Zm-21.79.03c.89-.08,1.57.18,2.11.97,1.05,1.54,2.96,1.66,3.89.66,1.23-1.33-.34-2.93-1.37-3.61-2.47-1.63-4.95-3.18-6.75-5.58-1.53.75-.54,2.57-1.51,3.55-5.88,1.34-8.27,6.27-4.92,10.23,1.43,1.69,3.35,2.58,5.46,3.12.04,2.21.09,4.43.13,6.64-1.26.08-2.42-.45-2.89-1.48-1-2.17-2.78-1.97-3.95-.93-1.07.96.22,2.29.91,3.41,1.69,2.72,6.35,1.79,7.04,5.82.06.36,1.6-.09,1.44-1.17-.21-1.41.74-1.61,1.66-1.93,3.19-1.11,5.48-3.08,5.56-6.67.1-4.01-2.87-5.55-5.97-6.92-.41-.18-.7-.61-1.05-.92.07-1.73.14-3.46.21-5.19Z"/>
  <path class="cls-4" d="m604.34,310.03c-2.11-.54-4.03-1.43-5.46-3.12-3.34-3.96-.96-8.89,4.92-10.23,2.36-.39,1.03-2.36,1.51-3.55,1.81,2.41,4.28,3.95,6.75,5.58,1.03.68,2.6,2.28,1.37,3.61-.93,1-2.84.88-3.89-.66-.54-.79-1.22-1.05-2.11-.97-1.79,1.66-.66,3.44-.21,5.19.35.31.64.74,1.05.92,3.1,1.37,6.07,2.91,5.97,6.92-.09,3.6-2.37,5.56-5.56,6.67-.92.32-1.87.52-1.66,1.93.16,1.08-1.37,1.53-1.44,1.17-.69-4.03-5.36-3.1-7.04-5.82-.7-1.12-1.98-2.45-.91-3.41,1.16-1.04,2.95-1.24,3.95.93.47,1.03,1.63,1.56,2.89,1.48,1.25-2.24,1.21-4.45-.13-6.64Zm.07-4.34c1.16-1.88,1.28-3.75-.11-5.58-4.1,2.67-4.1,2.7.11,5.58Zm2.25,6.24c.11,1.58-.96,3.33.64,4.71,2.42-.12,3.5-1.38,2.9-3.74-.39-1.55-1.49-1.78-3.54-.97Z"/>
  <path class="cls-4" d="m604.34,310.03c1.35,2.19,1.39,4.4.13,6.64-.04-2.21-.09-4.43-.13-6.64Z"/>
  <path class="cls-4" d="m605.32,293.13c-.48,1.19.85,3.16-1.51,3.55.98-.98-.02-2.8,1.51-3.55Z"/>
  <path class="cls-4" d="m607.23,305.88c-.45-1.75-1.58-3.53.21-5.19-.07,1.73-.14,3.46-.21,5.19Z"/>
  <path class="cls-2" d="m606.66,311.93c2.05-.81,3.15-.58,3.54.97.6,2.36-.47,3.62-2.9,3.74-.31-1.56.54-3.27-.64-4.71Z"/>
  <path class="cls-2" d="m604.42,305.69c-4.21-2.88-4.21-2.91-.11-5.58.04,1.86.07,3.72.11,5.58Z"/>
  <path class="cls-4" d="m604.42,305.69c-.04-1.86-.07-3.72-.11-5.58,1.39,1.83,1.27,3.7.11,5.58Z"/>
  <path class="cls-4" d="m606.66,311.93c1.19,1.44.33,3.15.64,4.71-1.6-1.38-.54-3.12-.64-4.71Z"/>
</svg>