<?xml version="1.0" encoding="UTF-8"?>
<svg id="Layer_1" data-name="Layer 1" xmlns="http://www.w3.org/2000/svg" viewBox="0 0 653.81 209.89">
  <defs>
    <style>
      .cls-1 {
        fill: #20295b;
      }

      .cls-2 {
        fill: #74c9bd;
      }

      .cls-3 {
        fill: #55648e;
      }

      .cls-4 {
        fill: #0b2241;
      }
    </style>
  </defs>
  <path class="cls-2" d="m653.2,155.03c.74,30.65-22.93,54.85-54.27,54.56-31.94-.29-54.47-27.65-54.18-55.62.27-25.55,20.55-52.99,54.8-52.89,34,.1,54.63,28.59,53.65,53.95Zm-20.19,12.45c1.34-4.83,1.37-9.65-.09-14.46-.28-.24-.59-.29-.93-.13-6.46-.07-12.91-.16-19.37-.21-2.72-.02-4.65,1.22-5.92,3.67-2.85,5.54.5,11.24,6.97,11.39,6.12.14,12.26-.09,18.38-.16.32-.04.63-.07.95-.11Zm-61.96-34.76c-.35.35-.71.7-1.06,1.05l.04-.06c-2.39,1.71-2.99,4.15-2.99,6.92,0,10.98-.12,21.97-.06,32.95.04,6.59,3.6,10.06,10.22,10.09,13.66.06,27.31.07,40.97,0,6.15-.03,9.87-3.84,9.78-9.97-.02-1.38,1.25-3.9-1.22-4.05-2.54-.15-1.74,2.44-1.64,3.85.26,3.99-1.56,6.27-5.23,7.34-14.88,0-29.76.01-44.64.02-4.58-1.35-5.95-4.77-5.95-9.12,0-10.24-.02-20.48-.03-30.72,1.71-1.3,3.73-1.13,5.69-1.13,17.34.02,34.67.06,52.01.09,1.18.92,2.29.95,1.83-.84-.32-1.25-.78-2.73-2.03-3.6.11-.26.04-.45-.21-.58-2.31-3.76-5.78-5.15-10.06-5.14-12.47.04-24.95.01-37.42,0-3.05,0-5.93.37-8.03,2.94l.04-.03Z"/>
  <path class="cls-1" d="m626.93,139.97c-17.34-.03-34.67-.07-52.01-.09-1.96,0-3.98-.17-5.69,1.13-.93-2.56,1.1-4.8.8-7.3l-.04.06c.35-.35.71-.7,1.06-1.05l-.04.03c6.37-2.05,12.94-2.07,19.53-1.97,6.11.1,12.24-.21,18.34.1,5.54.28,11.59-.77,15.86,4.42.43.52,1.23.07,1.77-.35.25.13.32.32.21.58-1.19,1.54.61,2.94.2,4.44Z"/>
  <path class="cls-1" d="m632.06,167.58c-6.13.07-12.26.3-18.38.16-6.48-.15-9.83-5.86-6.97-11.39,1.27-2.46,3.2-3.69,5.92-3.67,6.46.05,12.91.14,19.37.21.02,4.9.05,9.8.07,14.7Zm-14.06-7.82c-.53-2.48-2.25-3.87-4.8-3.87-2.58,0-4.05,1.8-3.82,4.19.24,2.5,2.03,4.3,4.69,4.18,2.45-.11,3.61-1.96,3.94-4.5Z"/>
  <path class="cls-4" d="m570.03,133.71c.3,2.49-1.73,4.73-.8,7.3.01,10.24.04,20.48.03,30.72,0,4.35,1.37,7.77,5.95,9.12.7.91,1.71.88,2.71.88,13.09,0,26.17,0,39.26,0,.99,0,2.01.06,2.68-.9,3.68-1.07,5.5-3.35,5.23-7.34-.09-1.4-.89-4,1.64-3.85,2.48.15,1.2,2.67,1.22,4.05.1,6.13-3.62,9.94-9.78,9.97-13.65.08-27.31.06-40.97,0-6.62-.03-10.18-3.5-10.22-10.09-.07-10.98.06-21.97.06-32.95,0-2.77.6-5.22,2.99-6.92Z"/>
  <path class="cls-4" d="m626.52,134.95c-.54.42-1.35.87-1.77.35-4.26-5.19-10.31-4.14-15.86-4.42-6.1-.31-12.23,0-18.34-.1-6.6-.11-13.16-.08-19.53,1.97,2.09-2.57,4.98-2.94,8.03-2.94,12.47.02,24.95.04,37.42,0,4.28-.01,7.75,1.38,10.06,5.14Z"/>
  <path class="cls-1" d="m619.85,180.83c-.67.96-1.69.9-2.68.9-13.09,0-26.17,0-39.26,0-.99,0-2.01.03-2.71-.88,14.88,0,29.76-.01,44.64-.02Z"/>
  <path class="cls-4" d="m632.06,167.58c-.02-4.9-.05-9.8-.07-14.7.34-.16.65-.12.93.13.03,4.82.06,9.64.09,14.46-.32.04-.63.07-.95.11Z"/>
  <path class="cls-3" d="m633.01,167.47c-.03-4.82-.06-9.64-.09-14.46,1.46,4.81,1.43,9.63.09,14.46Z"/>
  <path class="cls-4" d="m626.93,139.97c.41-1.5-1.4-2.9-.2-4.44,1.25.87,1.71,2.35,2.03,3.6.46,1.79-.65,1.76-1.83.84Z"/>
  <path class="cls-4" d="m571.05,132.71c-.35.35-.71.7-1.06,1.05.35-.35.71-.7,1.06-1.05Z"/>
  <path class="cls-2" d="m618,159.76c-.33,2.54-1.48,4.39-3.94,4.5-2.66.12-4.44-1.67-4.69-4.18-.23-2.39,1.24-4.18,3.82-4.19,2.55,0,4.27,1.39,4.8,3.87Z"/>
</svg>