<?xml version="1.0" encoding="utf-8"?>
<!-- Generator: Adobe Illustrator 27.6.1, SVG Export Plug-In . SVG Version: 6.00 Build 0)  -->
<svg version="1.1" id="Layer_1" xmlns="http://www.w3.org/2000/svg" xmlns:xlink="http://www.w3.org/1999/xlink" x="0px" y="0px"
	 viewBox="0 0 315.8 379.2" style="enable-background:new 0 0 315.8 379.2;" xml:space="preserve">
<style type="text/css">
	.st0{fill:#4EBA6F;}
</style>
<g>
	<path class="st0" d="M180.9,103.5c8.7,26.7,0.9,52.2-16.6,73.2c-9.7,11.7-21.3,21.9-29.8,34.5c-8,11.9-10,24.2-11.8,38
		c-10.5-8.7-15.3-28-16.5-41c-1.4-15.1,1.2-30.2,7.4-44c13.3-29.9,41.7-49.6,57.5-77.7c3.8,5.1,6.5,10.5,9.3,16.1
		c0,0-0.1-0.1-0.1-0.1C180.6,102.9,180.8,103.2,180.9,103.5C180.9,103.6,180.9,103.5,180.9,103.5z"/>
	<path class="st0" d="M209.9,179c-0.3,27.9-11,49.9-27.2,69.5c-8.3,10.1-17.7,19.4-26.3,29.2c-3.4,3.9-6.4,8.4-9,12.9
		c-1.7,2.9-2.4,2.4-4,0c-16-23.1-16.5-50.2-0.6-74.5c15.3-23.3,36.8-39.1,62.3-50c2.8-1.2,3.7-0.3,3.9,2.3
		C209.3,172.6,209.7,176.7,209.9,179z"/>
	<path class="st0" d="M180.9,103.5C180.9,103.5,180.9,103.6,180.9,103.5C180.9,103.6,180.9,103.5,180.9,103.5z"/>
	<path class="st0" d="M180.5,102.6C180.5,102.6,180.5,102.7,180.5,102.6C180.5,102.7,180.5,102.6,180.5,102.6z"/>
</g>
</svg>
