<?xml version="1.0" encoding="UTF-8"?>
<svg id="Layer_1" data-name="Layer 1" xmlns="http://www.w3.org/2000/svg" viewBox="0 0 653.81 418.3">
  <defs>
    <style>
      .cls-1 {
        fill: #f05640;
      }

      .cls-2 {
        fill: #20295b;
      }

      .cls-3 {
        fill: #74c9bd;
      }

      .cls-4 {
        fill: #0e1026;
      }

      .cls-5 {
        fill: #aab2cd;
      }

      .cls-6 {
        fill: #fefdfe;
      }

      .cls-7 {
        fill: #55648e;
      }

      .cls-8 {
        fill: #0b2241;
      }
    </style>
  </defs>
  <path class="cls-1" d="m602.94,309.76c23.21,2.23,39.88,13.61,47.79,35.82,11.27,31.64-9.64,67.11-41.83,71.88-.71-.12-1.35-.04-1.84.55-14.65,1.28-28.19-1.51-40.28-10.37-17.38-12.74-26.25-35.42-21.19-56.12,5.27-21.58,20.59-36.41,43.32-41.24,1.61-.34,3.29-.38,4.93-.56,3.03.01,6.07.02,9.1.03Zm-35.59,70.17c.94,5.76,2.84,7.68,8.13,8.23l.26.18.3-.08c1.61,1.28,3.51.7,5.28.72,9.11.07,18.23.1,27.34.05,6.27-.03,12.59.63,18.77-1.06,2.29-1.38,4.49-2.84,5.07-5.73,1.18-.81.9-2.09.9-3.19-.03-10.98-.13-21.95-.21-32.93-1.33-4.56-4.58-6.85-9.13-6.88-14.13-.08-28.26.05-42.39.1-.85-.67-1.71-1.32-2.53-2.01-1.01-.85-1.63-.72-1.81.66-.94.65-1.99.95-3.07,1.31-3.74,1.26-6.65,3.48-6.9,7.9-1.49,9.3-.5,18.67-.84,28-.06,1.6-.39,3.32.83,4.73Z"/>
  <path class="cls-5" d="m602.94,309.76c-3.03-.01-6.07-.02-9.1-.03,3.04-.68,6.07-.77,9.1.03Z"/>
  <path class="cls-5" d="m607.05,418c.49-.59,1.14-.68,1.84-.55-.46.69-1.16.58-1.84.55Z"/>
  <path class="cls-2" d="m577.33,337.98c.18-1.38.8-1.51,1.81-.66.83.69,1.69,1.34,2.53,2.01.37.63.73,1.27,1.1,1.9,1.29,1.54,2.59,3.08,3.88,4.62.43,2.56,2.45,2.29,4.22,2.3,8.25.02,16.5,0,24.74-.07.48,0,1.86.7,1.4-.95l.28-1.32c2.99-1.97,5.93-3.02,8.65.42,1.85,1.25,3.68,1.71,5.42-.2.61.03,1.22.06,1.83.08.08,10.98.17,21.95.21,32.93,0,1.1.28,2.38-.9,3.19-.43-2.03.61-4.3-1.02-6.13-.06-3.75-.15-7.5-.17-11.25-.03-6.81,0-6.81-7.08-6.54-7.65-.06-15.31-.12-22.96-.17-.77,0-1.73-.17-1.75,1.1-.14.17-.28.34-.42.51.18-.15.37-.3.55-.45.25,0,.4.13.46.37-.56,1.41.46,1.35,1.33,1.43l-.06-.04c.36.35.71.71,1.07,1.06l-.04-.06c-.03,1.37.59,2.11,2.02,2.04l-.03-.03c.05.91.03,1.88,1.43,1.33l.24.27c-.54,1.41.5,1.32,1.34,1.42h-.01c-.08,1.4.63,2.04,2.01,1.99h-.02c.34.33.68.67,1.03,1.01,0,0,0-.01,0-.01-.05,1.4.61,2.07,2.01,2,.32.32.65.64.97.96.35.35.7.69,1.04,1.04.25.06.49.08.75.07.14.21.2.45.17.71.12.62.43,1.08,1.08,1.24l-.05-.07c.11.6.47.95,1.07,1.06,0,0-.07-.06-.07-.06.36.35.72.71,1.09,1.06,0,0-.08-.08-.08-.08.36.36.73.72,1.09,1.08l-.09-.09c.36.36.72.73,1.08,1.09,0,0-.08-.08-.08-.08.36.36.71.72,1.07,1.08l-.08-.07c.14.6.51.95,1.11,1.06l-.1-.09c.37.36.74.73,1.11,1.09l-.07-.1c-.09,1.43.54,2.17,2.02,2.08l-.03-.07c.33,1.22,2.09,1.48,2.01,2.97-6.18,1.69-12.5,1.03-18.77,1.06-9.11.05-18.23.01-27.34-.05-1.77-.01-3.66.56-5.28-.72,13.45-.06,26.89-.1,40.34-.19,1.24,0,2.48-.29,3.72-.44-1.3-.16-2.6-.36-3.9-.46-1.65-.12-3.31-.16-4.97-.24.07-.21.12-.43.17-.65,2.53-.81,5.49,1.23,7.77-1.19.52-2.07-.27-2.72-2.25-2.07-.41-.05-.59-.29-.56-.69.11-.08.23-.17.34-.25-.1-.1-.2-.2-.29-.3-.08.12-.16.24-.24.35-.27-.27-.53-.55-.8-.82.12-.08.25-.16.37-.24-.1-.1-.21-.2-.31-.3-.08.12-.16.25-.24.37-.27-.27-.54-.54-.81-.8l.35-.25c-.1-.1-.2-.2-.3-.3-.08.12-.16.23-.25.35-.27-.27-.54-.53-.81-.8l.34-.25c-.1-.1-.2-.19-.29-.29-.08.11-.17.22-.25.34-.27-.27-.53-.54-.8-.8.11-.08.23-.17.34-.25-.1-.1-.2-.2-.29-.3-.08.12-.16.23-.24.35-.27-.27-.53-.55-.8-.82l.37-.24c-.1-.1-.21-.2-.31-.3-.08.12-.15.25-.23.37-.24-.19-.48-.37-.72-.56.63-1.43-.44-1.29-1.27-1.37l.07.07c-.07-.85,0-1.84-1.38-1.27-.25-.04-.39-.19-.43-.44.62-1.65.12-2.17-1.54-1.54-.41-.05-.6-.28-.56-.7.12-.08.23-.16.35-.24-.1-.1-.2-.2-.3-.29-.08.11-.17.23-.25.34-.26-.26-.52-.52-.79-.78.11-.09.22-.17.33-.26-.1-.1-.2-.2-.3-.29l-.25.34c-.26-.26-.52-.52-.78-.78.11-.09.22-.17.34-.26-.1-.1-.2-.2-.3-.29-.08.11-.17.23-.25.34-.27-.27-.53-.54-.8-.8.12-.08.23-.16.35-.25-.1-.1-.2-.2-.3-.3-.08.12-.16.23-.25.35-.4.03-.64-.15-.7-.55.61-1.37-.36-1.34-1.24-1.38l.06.06c-.03-.89,0-1.85-1.38-1.24-.39-.06-.57-.29-.53-.68.12-.08.23-.16.35-.25-.1-.1-.2-.2-.3-.3-.08.12-.16.23-.24.35l-.71-.58c.61-1.64.09-2.15-1.55-1.55-.38-.05-.55-.26-.52-.64.11-.1.22-.19.33-.29-.1-.1-.2-.2-.3-.3-.1.11-.2.21-.29.32-.39.02-.6-.16-.64-.54.1-3.21-2.04-4.24-4.65-4.3-5.62-.14-11.24-.03-16.87-.04-1.27,0-2.32.25-2.5,1.76l-1.13.32c-.65-1.35-1-2.74-1.06-4.27-.22-5.76-.21-5.69,5.5-5.91,2.51-.1,5.28,1.13,7.51-1.08.05-.27.03-.54-.05-.81.13-.26.26-.52.39-.78l-1.37-.23.08.06c-.12-.63-.5-.97-1.13-1.05l.1.1c-.08-.63-.45-.99-1.06-1.13l.06.09c-.06-.87-.05-1.82-1.4-1.24h-.07c.16-1.37.32-2.73.49-4.08Z"/>
  <path class="cls-8" d="m577.33,337.98c-.16,1.36-.32,2.71-.49,4.07-3.17-1.29-4.84.88-6.52,2.88-1.22,1.45-1,2.27,1.12,2.21,3.29-.09,6.58-.06,9.87-.08-2.23,2.2-5,.98-7.51,1.08-5.71.22-5.72.15-5.5,5.91.06,1.53.41,2.92,1.06,4.27,0,5.82.27,11.65-.07,17.45-.27,4.63,1.27,7.97,5.13,10.36-1,1.38,1.13,1.13,1.06,2.03-5.3-.55-7.19-2.47-8.13-8.23,0-10.91.01-21.82.02-32.74.25-4.42,3.16-6.64,6.9-7.9,1.08-.36,2.13-.66,3.07-1.31Z"/>
  <path class="cls-4" d="m582.77,341.23c-.37-.63-.73-1.27-1.1-1.9,14.13-.05,28.26-.18,42.39-.1,4.55.03,7.79,2.32,9.13,6.88-.61-.03-1.22-.06-1.83-.08-2.45-3.56-5.73-4.95-10.15-4.88-12.81.22-25.63.08-38.45.08Z"/>
  <path class="cls-4" d="m575.48,388.16c.08-.9-2.06-.65-1.06-2.03.65.03,1.3.07,1.95.1,1.18,1.3,2.77.87,4.19.87,10.22-.02,20.45-.11,30.67-.18,1.66.07,3.31.11,4.97.24,1.3.1,2.6.3,3.9.46-1.24.15-2.48.44-3.72.44-13.45.09-26.89.14-40.34.19l-.3.08-.26-.18Z"/>
  <path class="cls-2" d="m567.36,347.19c0,10.91-.01,21.82-.02,32.74-1.22-1.41-.89-3.14-.83-4.73.35-9.33-.65-18.71.84-28Z"/>
  <path class="cls-8" d="m627.43,387.96c.08-1.5-1.68-1.75-2.01-2.97,4.63-.8,5.61-2.25,6.06-8.9,1.63,1.83.59,4.1,1.02,6.13-.58,2.89-2.78,4.35-5.07,5.73Z"/>
  <path class="cls-6" d="m576.37,386.23c-.65-.03-1.3-.07-1.95-.1-3.86-2.39-5.4-5.73-5.13-10.36.34-5.8.07-11.63.07-17.45l1.13-.32c5.98.05,11.96.28,17.94.09,2.58-.08,4.48.62,6.07,2.5.04.39.26.57.64.54l.27.27c-.03.38.15.59.52.64.52.52,1.03,1.04,1.55,1.55l.71.58.19.19c-.03.39.14.62.53.68l1.38,1.24-.06-.06c.41.46.83.92,1.24,1.38.06.4.3.58.7.55l.2.19c.27.27.53.54.8.8l.21.21.78.78.22.22c.26.26.52.52.79.78l.2.19c-.04.41.15.64.56.7.51.51,1.03,1.03,1.54,1.54.03.25.18.4.43.44l1.38,1.27s-.07-.07-.07-.07c.42.46.85.91,1.27,1.37.24.19.48.37.72.56,0,0,.17.17.17.17.27.27.53.55.8.82l.2.2c.27.27.53.54.8.8,0,0,.21.2.21.2.27.27.54.53.81.8l.2.2c.27.27.54.54.81.8,0,0,.18.17.18.17.27.27.53.55.8.82,0,0,.19.2.19.2-.03.41.15.64.56.69.75.69,1.5,1.38,2.25,2.07-2.28,2.42-5.24.38-7.77,1.19-11.68-.02-23.35-.03-35.03-.05Zm14.11-10.13l-.07-.07c-4.77-2.01-9.7-.58-14.56-.73-2.11.73-3.66,1.68-1.61,4.06.48.74,1.21.94,2.03.96,2.13,1.68,3.69,4.46,6.67,4.6,4.96.24,9.94.1,14.91.04,3.18-.04,2.01-1.51.98-3.07-1.92-2.89-5.29-1.19-7.66-2.56.37-1.2.59-2.37-.68-3.23Z"/>
  <path class="cls-6" d="m631.48,376.09c-.45,6.65-1.44,8.1-6.06,8.9l.03.07c-.37-.99-1.07-1.66-2.02-2.08l.07.1c-.13-.61-.49-.99-1.11-1.09l.1.09c-.11-.62-.49-.97-1.11-1.06l.08.07c-.09-.62-.45-.98-1.07-1.08l.08.08c-.1-.62-.46-.98-1.08-1.09l.09.09c-.11-.62-.46-.98-1.09-1.08l.08.08c-.1-.62-.46-.98-1.09-1.06l.07.06c-.09-.62-.43-.99-1.07-1.06l.05.07c-.06-.68-.51-1.01-1.08-1.24.03-.26-.03-.49-.17-.71.46-1.14.92-2.28,1.38-3.42,2.78,2.74,6.45,3.55,7.99,1.4,1.97-2.76,1.37-5.51-1.33-7.68,2.71-1.66,4.25-3.51,1.01-6.15,7.07-.27,7.05-.27,7.08,6.54.01,3.75.11,7.5.17,11.25Z"/>
  <path class="cls-3" d="m624.24,358.31c3.23,2.64,1.7,4.49-1.01,6.15-5.5-.25-6.64.82-6.66,6.28-.46,1.14-.92,2.28-1.38,3.42-.25.01-.5,0-.75-.07-.35-.35-.7-.69-1.04-1.04-.32-.32-.65-.64-.97-.96-.67-.67-1.34-1.34-2.01-2,0,0,0,.01,0,.01-.34-.34-.68-.68-1.03-1.02h.02c-.42-.9-1.08-1.58-2.01-1.99h.01c-.45-.46-.9-.93-1.34-1.4l-.24-.27c-.48-.44-.96-.89-1.43-1.33l.03.03c-.43-.93-1.1-1.6-2.02-2.04l.04.06c-.36-.35-.71-.71-1.07-1.06l.06.04c-.44-.48-.89-.96-1.33-1.43-.06-.24-.21-.37-.46-.37l-.13-.07c.01-1.27.98-1.1,1.75-1.1,7.65.04,15.31.11,22.96.17Z"/>
  <path class="cls-6" d="m582.77,341.23c12.82,0,25.64.14,38.45-.08,4.42-.08,7.69,1.32,10.15,4.88-1.74,1.91-3.56,1.44-5.42.2,1.65-2.65.18-3-2.12-3.12-6.13-.33-6.53-.22-6.53,2.7l-.28,1.32c-8.26,0-16.51,0-24.77.03-1.99.01-3.96.1-5.6-1.32-1.29-1.54-2.59-3.08-3.88-4.62Zm28.67,4.02c1.4-.41,3.39.69,3.57-1.05.19-1.92-1.84-1.82-3.27-1.97-.16-.02-.33-.03-.49-.02-3.28.28-6.63-.83-9.85.52,3.17,1.94,6.86,1.66,10.05,2.53Z"/>
  <path class="cls-8" d="m594.49,360.58c-1.6-1.88-3.49-2.58-6.07-2.5-5.97.19-11.96-.03-17.94-.09.18-1.51,1.23-1.76,2.5-1.76,5.62,0,11.25-.1,16.87.04,2.61.07,4.75,1.09,4.65,4.3Z"/>
  <path class="cls-6" d="m581.31,347.06c-3.29.02-6.58,0-9.87.08-2.12.06-2.33-.76-1.12-2.21,1.68-2,3.35-4.17,6.52-2.88h.07c.47.43.93.84,1.4,1.26,0,0-.06-.09-.06-.09.11.61.43,1.02,1.06,1.13l-.1-.1c.11.63.54.94,1.13,1.05l-.08-.06c.33.34.66.67.99,1.01.08.27.1.53.05.81Z"/>
  <path class="cls-7" d="m576.37,386.23c11.68.02,23.35.03,35.03.05-.05.22-.1.43-.17.65-10.22.07-20.44.16-30.67.18-1.42,0-3.01.44-4.19-.87Z"/>
  <path class="cls-4" d="m586.66,345.85c1.64,1.42,3.6,1.33,5.6,1.32,8.26-.04,16.51-.03,24.77-.03.46,1.64-.91.94-1.4.95-8.25.07-16.5.09-24.74.07-1.77,0-3.8.26-4.22-2.3Z"/>
  <path class="cls-4" d="m617.3,345.81c0-2.93.4-3.03,6.53-2.7,2.3.12,3.77.47,2.12,3.12-2.73-3.43-5.67-2.38-8.65-.42Z"/>
  <path class="cls-8" d="m619.17,385.08c-.75-.69-1.5-1.38-2.25-2.07,1.98-.65,2.77,0,2.25,2.07Z"/>
  <path class="cls-8" d="m623.42,382.98c.96.42,1.65,1.09,2.02,2.08-1.49.1-2.11-.64-2.02-2.08Z"/>
  <path class="cls-8" d="m607.47,373.57c-.51-.51-1.03-1.03-1.54-1.54,1.66-.63,2.17-.11,1.54,1.54Z"/>
  <path class="cls-8" d="m610.41,370.09c.67.67,1.34,1.34,2.01,2-1.4.07-2.07-.61-2.01-2Z"/>
  <path class="cls-8" d="m597.48,363.58c-.52-.52-1.03-1.04-1.55-1.55,1.64-.6,2.16-.08,1.55,1.55Z"/>
  <path class="cls-8" d="m607.41,367.08c.93.41,1.59,1.09,2.01,2.01-1.38.04-2.09-.59-2.01-2.01Z"/>
  <path class="cls-8" d="m602.41,362.07c.92.44,1.6,1.11,2.02,2.04-1.43.07-2.05-.67-2.02-2.04Z"/>
  <path class="cls-8" d="m600.3,366.27l-1.38-1.24c1.38-.6,1.35.35,1.38,1.24Z"/>
  <path class="cls-8" d="m601.48,367.6c-.41-.46-.83-.92-1.24-1.38.88.04,1.85,0,1.24,1.38Z"/>
  <path class="cls-8" d="m581.25,346.25c-.33-.34-.66-.67-.99-1.01l1.37.23c-.13.26-.26.52-.39.78Z"/>
  <path class="cls-8" d="m578.31,343.31c-.47-.41-.93-.83-1.4-1.24,1.35-.57,1.34.37,1.4,1.24Z"/>
  <path class="cls-8" d="m600.11,359.68c.44.48.89.96,1.33,1.43-.87-.08-1.89-.03-1.33-1.43Z"/>
  <path class="cls-8" d="m606.08,365.68l1.34,1.42c-.84-.1-1.88,0-1.34-1.42Z"/>
  <path class="cls-8" d="m604.4,364.08c.48.44.96.89,1.43,1.33-1.4.55-1.39-.42-1.43-1.33Z"/>
  <path class="cls-8" d="m610.48,376.58c-.42-.46-.85-.91-1.27-1.37.83.08,1.9-.06,1.27,1.37Z"/>
  <path class="cls-8" d="m609.28,375.28l-1.38-1.27c1.38-.57,1.31.42,1.38,1.27Z"/>
  <path class="cls-8" d="m605.37,371.33l-.2-.19c.08-.11.17-.23.25-.34.1.1.2.2.3.29-.12.08-.23.16-.35.24Z"/>
  <path class="cls-8" d="m609.39,369.08c.34.34.68.68,1.03,1.02-.34-.34-.68-.68-1.03-1.02Z"/>
  <path class="cls-8" d="m604.38,370.36s-.22-.22-.22-.22l.25-.34c.1.1.2.2.3.29-.11.09-.22.17-.33.26Z"/>
  <path class="cls-8" d="m601.38,361.07c.36.35.71.71,1.07,1.06-.36-.35-.71-.71-1.07-1.06Z"/>
  <path class="cls-8" d="m613.4,373.05l1.04,1.04-1.04-1.04Z"/>
  <path class="cls-8" d="m615.36,374.87c.57.23,1.02.56,1.08,1.24-.65-.16-.96-.62-1.08-1.24Z"/>
  <path class="cls-8" d="m603.39,369.35l-.21-.21c.08-.11.17-.23.25-.34.1.1.2.2.3.29-.11.09-.22.17-.34.26Z"/>
  <path class="cls-8" d="m602.38,368.34s-.2-.19-.2-.19c.08-.12.16-.23.25-.35.1.1.2.2.3.3-.12.08-.23.16-.35.25Z"/>
  <path class="cls-8" d="m611.37,377.31s-.17-.17-.17-.17c.08-.12.15-.25.23-.37.1.1.21.2.31.3l-.37.24Z"/>
  <path class="cls-8" d="m616.39,376.04c.64.07.98.43,1.07,1.06-.6-.11-.96-.46-1.07-1.06Z"/>
  <path class="cls-8" d="m612.37,378.33l-.2-.2c.08-.12.16-.23.24-.35.1.1.2.2.29.3-.11.08-.23.17-.34.25Z"/>
  <path class="cls-8" d="m617.38,377.04c.63.08.99.44,1.09,1.06-.36-.35-.72-.71-1.09-1.06Z"/>
  <path class="cls-8" d="m595.41,361.39l-.27-.27c.1-.11.2-.21.29-.32.1.1.2.2.3.3-.11.1-.22.19-.33.29Z"/>
  <path class="cls-8" d="m613.37,379.33s-.21-.2-.21-.2c.08-.11.17-.22.25-.34.1.1.2.19.29.29l-.34.25Z"/>
  <path class="cls-8" d="m618.38,378.01c.62.1.98.46,1.09,1.08-.36-.36-.73-.72-1.09-1.08Z"/>
  <path class="cls-8" d="m598.38,364.35l-.19-.19c.08-.12.16-.23.24-.35.1.1.2.2.3.3-.12.08-.23.16-.35.25Z"/>
  <path class="cls-8" d="m614.38,380.33l-.2-.2c.08-.12.16-.23.25-.35.1.1.2.2.3.3l-.35.25Z"/>
  <path class="cls-8" d="m619.38,379.01c.62.11.98.47,1.08,1.09-.36-.36-.72-.73-1.08-1.09Z"/>
  <path class="cls-8" d="m579.31,344.35c-.64-.11-.95-.52-1.06-1.13.61.14.98.5,1.06,1.13Z"/>
  <path class="cls-8" d="m580.34,345.3c-.6-.12-1.02-.42-1.13-1.05.63.08,1.01.43,1.13,1.05Z"/>
  <path class="cls-8" d="m615.37,381.3s-.18-.17-.18-.17c.08-.12.16-.25.24-.37.1.1.21.2.31.3-.12.08-.25.16-.37.24Z"/>
  <path class="cls-8" d="m620.38,380.01c.62.1.98.46,1.07,1.08-.36-.36-.71-.72-1.07-1.08Z"/>
  <path class="cls-8" d="m599.53,359.24l.13.07c-.18.15-.37.3-.55.45.14-.17.28-.34.42-.51Z"/>
  <path class="cls-8" d="m622.38,381.99c.63.1.99.48,1.11,1.09-.37-.36-.74-.73-1.11-1.09Z"/>
  <path class="cls-8" d="m621.38,381.02c.62.09,1,.44,1.11,1.06-.6-.11-.97-.46-1.11-1.06Z"/>
  <path class="cls-8" d="m616.36,382.32l-.19-.2.24-.35c.1.1.2.2.29.3-.11.08-.23.17-.34.25Z"/>
  <path class="cls-3" d="m591.17,379.33c2.37,1.38,5.75-.33,7.66,2.56,1.03,1.56,2.21,3.02-.98,3.07-4.97.07-9.95.2-14.91-.04-2.98-.14-4.54-2.92-6.67-4.6,2-.35,4.13.44,6.05-.66.65,0,1.3,0,1.94,0,1.76.94,3.51.9,5.24-.08.26-.13.54-.22.82-.29l.41.08.42-.04Z"/>
  <path class="cls-1" d="m590.33,379.28c-.28.07-.56.16-.82.29-1.75.03-3.49.05-5.24.08-.65,0-1.3,0-1.94,0-2.69-.1-5.39-.2-8.08-.3-2.06-2.38-.5-3.33,1.61-4.06,4.8,1.29,9.75-.44,14.56.73l.07.07c.55,1.09.58,2.16-.15,3.19Z"/>
  <path class="cls-5" d="m590.41,376.02c-4.81-1.16-9.76.56-14.56-.73,4.86.15,9.8-1.28,14.56.73Z"/>
  <path class="cls-5" d="m574.25,379.35c2.69.1,5.39.2,8.08.3-1.92,1.1-4.05.31-6.05.66-.82-.03-1.55-.22-2.03-.96Z"/>
  <path class="cls-5" d="m590.33,379.28c.73-1.03.7-2.1.15-3.19,1.27.86,1.05,2.03.68,3.23l-.42.04-.41-.08Z"/>
  <path class="cls-2" d="m616.57,370.74c.02-5.47,1.16-6.54,6.66-6.28,2.7,2.18,3.3,4.92,1.33,7.68-1.53,2.15-5.2,1.34-7.99-1.4Z"/>
  <path class="cls-3" d="m611.44,345.25c-3.19-.87-6.88-.59-10.05-2.53,3.22-1.35,6.57-.24,9.85-.52.16-.01.33,0,.49.02,1.43.15,3.46.06,3.27,1.97-.17,1.75-2.16.64-3.57,1.05Z"/>
  <path class="cls-5" d="m584.27,379.65c1.75-.03,3.49-.05,5.24-.08-1.73.98-3.48,1.02-5.24.08Z"/>
</svg>