<?xml version="1.0" encoding="utf-8"?>
<!-- Generator: Adobe Illustrator 27.6.1, SVG Export Plug-In . SVG Version: 6.00 Build 0)  -->
<svg version="1.1" id="Layer_1" xmlns="http://www.w3.org/2000/svg" xmlns:xlink="http://www.w3.org/1999/xlink" x="0px" y="0px"
	 viewBox="0 0 612 379.2" style="enable-background:new 0 0 612 379.2;" xml:space="preserve">
<style type="text/css">
	.st0{fill:#4EBA6F;}
	.st1{fill:#FFFFFF;}
	.st2{font-family:'TwCenMT-CondensedExtraBold';}
	.st3{font-size:111.2296px;}
</style>
<g>
	<path class="st0" d="M113.4,108.8c7.4,22.8,0.8,44.6-14.1,62.7C91,181.4,81,190.2,73.7,201c-6.8,10.2-8.5,20.7-10.1,32.5
		c-9-7.4-13.1-23.9-14.1-35c-1.2-12.9,1.1-25.8,6.4-37.7c11.4-25.6,35.6-42.4,49.3-66.5c3.2,4.4,5.6,9,8,13.8l-0.1-0.1
		C113.2,108.3,113.4,108.5,113.4,108.8C113.5,108.8,113.4,108.8,113.4,108.8z"/>
	<path class="st0" d="M138.3,173.4c-0.3,23.9-9.4,42.7-23.3,59.5c-7.2,8.6-15.1,16.6-22.5,25c-3,3.4-5.5,7.2-7.7,11
		c-1.4,2.4-2.1,2.1-3.4,0c-13.7-19.8-14.1-42.9-0.5-63.8c13.1-20,31.5-33.5,53.2-42.8c2.4-1.1,3.2-0.3,3.4,2
		C137.8,167.9,138.1,171.4,138.3,173.4z"/>
	<path class="st0" d="M113.4,108.8L113.4,108.8C113.5,108.8,113.4,108.8,113.4,108.8z"/>
	<path class="st0" d="M113.2,108L113.2,108C113.2,108.1,113.2,108,113.2,108z"/>
</g>
<text transform="matrix(1 0 0 1 154.549 174.1285)" class="st1 st2 st3">Financial</text>
<text transform="matrix(1 0 0 1 154.549 270.546)" class="st1 st2 st3">Education</text>
</svg>
