<?xml version="1.0" encoding="UTF-8"?>
<svg id="Layer_1" data-name="Layer 1" xmlns="http://www.w3.org/2000/svg" viewBox="0 0 351.94 151.02">
  <defs>
    <style>
      .cls-1 {
        fill: #4eba6f;
      }

      .cls-2 {
        fill: #fff;
        font-family: TwCenMT-CondensedExtraBold, 'Tw Cen MT Condensed Extra Bold';
        font-size: 77px;
        font-weight: 700;
      }
    </style>
  </defs>
  <g>
    <path class="cls-1" d="m44.4,18.36c5.18,15.78.55,30.9-9.8,43.37-5.73,6.9-12.63,12.95-17.66,20.43-4.74,7.06-5.92,14.3-6.98,22.53C3.73,99.53.93,88.11.22,80.43c-.83-8.95.73-17.88,4.38-26.07,7.9-17.73,24.68-29.36,34.07-46.03,2.23,3.04,3.83,6.2,5.53,9.55,0,0-.04-.05-.04-.05.09.19.19.38.28.58,0,0-.04-.03-.04-.03Z"/>
    <path class="cls-1" d="m61.61,63.07c-.17,16.54-6.52,29.56-16.1,41.16-4.94,5.98-10.47,11.46-15.57,17.31-2.03,2.33-3.77,4.97-5.36,7.63-1.01,1.69-1.41,1.41-2.36.03-9.45-13.69-9.76-29.72-.35-44.12,9.03-13.82,21.8-23.17,36.86-29.6,1.68-.72,2.2-.17,2.34,1.38.21,2.42.43,4.85.55,6.21Z"/>
    <path class="cls-1" d="m44.4,18.36s.04.03.04.03c0,0-.04-.03-.04-.03Z"/>
    <path class="cls-1" d="m44.17,17.82s.04.06.04.05c0,0-.04-.05-.04-.05Z"/>
  </g>
  <text class="cls-2" transform="translate(72.86 63.6)"><tspan x="0" y="0">Financial</tspan></text>
  <text class="cls-2" transform="translate(72.86 130.34)"><tspan x="0" y="0">Education</tspan></text>
</svg>