<?xml version="1.0" encoding="UTF-8"?>
<svg id="Layer_1" data-name="Layer 1" xmlns="http://www.w3.org/2000/svg" viewBox="0 0 657.91 417.93">
  <defs>
    <style>
      .cls-1 {
        fill: #f05640;
      }

      .cls-2 {
        fill: #20295b;
      }

      .cls-3 {
        fill: #0e1026;
      }

      .cls-4 {
        fill: #feca3a;
      }

      .cls-5 {
        fill: #0b2241;
      }
    </style>
  </defs>
  <path class="cls-4" d="m657.88,364.24c.98,27.09-21.03,53.12-52.45,53.68-35.06.62-54.42-27.22-55.88-50.16-2.11-33.11,24.71-58.09,54-58.21,30.64-.12,55.23,25.54,54.33,54.68Zm-44.58-14.42c.5-1.21,1.08-2.39,1.48-3.63,1.8-5.49-.46-11.65-5.32-14.64-4.49-2.76-11.66-1.89-15.67,1.9-3.48,3.29-4.35,10.12-1.88,14.76,2.99,5.6,8.14,7.33,16.74,5.64-2.41,2.88-5.63,2.31-8.63,1.72-2.77-.54-5.49-.9-8.28-.57,0-2.82-1.12-3.59-3.65-2.07-4.14,2.5-7.53,5.86-10.78,9.37-1,1.09-.9,2.41-.37,3.72-.1.77-.21,1.55-.31,2.32-3.22-2.45-6.36-4.91-4-9.71.36-.73,0-1.65-.94-2-1.04-.39-1.52.38-1.77,1.12-.25.76-.21,1.61-.3,2.43-1.06,1.2-1.12,2.4.03,3.58,3.17,6.75,7.14,13.03,11.54,19,1.76,2.39,3.21,4.09,1.74,7.41-.85,1.93-1.2,5.06,1.52,6.73,2.3,1.41,5.13,1.89,6.94-.17,4.14-4.69,9.39-3.8,14.62-3.89,2.64-.04,4.12.74,5.53,3.07,3.4,5.57,7.52,5.11,10.5-.9.79-1.59.43-3.17,0-4.76.69-1.78,2.14-2.93,3.46-4.18,3.13-2.97,6.42-5.79,9.37-8.93,4.02-4.28,4.02-8.88.24-13.3-1.18-1.38-2.41-2.83-3.91-3.82-3.46-2.28-5.43-5.03-4.55-9.4.43-2.12-.85-3.2-2.83-3.99-1.96-.78-3.16-.2-4.33,1.2-1.18,1.41-2.49,2.67-4.1,3.59-.96-.19-2.19-.03-2.09-1.6Z"/>
  <path class="cls-1" d="m591.74,355.01c2.8-.33,5.51.03,8.28.57,3.01.59,6.22,1.16,8.63-1.72l-.06.11c1.3.07,2.59.14,3.89.22,1.67,1.97,3.21,2.78,4.98-.04.67-1.06,2-1.71,3.05-2.52.76-.59,1.58-1.6,2.55-.84.48.37.67,1.55.52,2.26-.85,3.86,1.2,6.21,3.96,8.35,1.44,1.11,2.73,2.42,4.04,3.7,4.07,3.95,4.17,6.35.17,10.46-3.24,3.33-6.59,6.56-10.05,9.66-2.11,1.9-3.37,3.89-3.09,6.87.12,1.27.89,3.24-1.18,3.8-2.05.55-3.1-1.09-3.72-2.59-1.23-3.01-3.49-3.61-6.38-3.39-6.15.47-12.99-2.17-17.84,4.14-.66.86-1.95,1.29-3.06.16-.84-.85-.95-1.78-.25-2.66,2.89-3.62.84-6.23-1.44-9.17-3.32-4.28-6.98-8.45-8.12-14.02.1-.77.21-1.55.31-2.32,2.04.33,2.86-1.25,3.96-2.47,3.11-3.48,6.48-6.64,10.84-8.55Z"/>
  <path class="cls-1" d="m622.03,395.01c0-1.59,0-3.17,0-4.76.43,1.59.79,3.17,0,4.76Z"/>
  <path class="cls-4" d="m569.62,360.18c0,1.19.02,2.39.03,3.58-1.15-1.18-1.09-2.38-.03-3.58Z"/>
  <path class="cls-4" d="m608.6,353.97c1.07-1.27,2.33-2.16,4.09-2.03-.07.75-.13,1.49-.2,2.24-1.3-.07-2.59-.14-3.89-.21Z"/>
  <path class="cls-4" d="m611.69,342.53c-.06,5.33-3.48,8.68-8.74,8.55-5.01-.12-9.41-4.48-9.26-9.16.15-4.45,4.63-8.79,9.2-8.76,4.26.03,9.8,4.33,8.8,9.37Z"/>
  <path class="cls-1" d="m613.48,352.77c-.06-.21-.38-.28-.79-.25-.02-.04-.06-.08-.13-.11.29-.19.74-.58.18-.67-1.36-.23-2.93-.01-4.2.65-.39.1-.77.26-1.01.49-.16.15-.21.27-.18.37-.2.22-.38.5-.35.75-.48.09-.96.17-1.46.2-.79.05-1.57.08-2.32.23-2.93-.8-5.69-1.8-8.81-1.26-.23.04-1.8.61-1.69.96-.02,0-.04,0-.07.01-.38.08-1.61.3-1.7.8-.08.5.92.35,1.16.3,1.15-.25,2.34.13,3.48.35.81.15,1.62.26,2.44.25-.04.12,0,.22.23.27,3.09.6,6.67.96,9.77.24.39-.09,1.43-.33,1.59-.83.16-.5-.5-.6-.84-.64-.31-.04-.63-.05-.94-.07.38-.1.75-.2,1.12-.32.3,0,.6,0,.9-.01-.04.1-.02.18.07.24.74.47,1.86.15,2.6-.18.8-.36,1.2-.86.94-1.74Z"/>
  <path class="cls-5" d="m593.88,353.69c.1-.51-.24-1.02-1.22-1.02-.52,0-.93.21-1.19.49-.46-1.21-1.54-1.33-3.37-.22-4.14,2.5-7.53,5.86-10.78,9.37-1,1.09-.9,2.41-.37,3.72,2.04.33,2.86-1.25,3.96-2.47,3.11-3.48,6.48-6.64,10.84-8.55,0,0,0-.01,0-.02.06,0,.12.02.19.02.64,0,1.59-.18,1.9-.84.08-.17.09-.33.05-.48Z"/>
  <path class="cls-5" d="m576.64,368.35c1.14,5.57,4.8,9.74,8.12,14.02,2.28,2.94,4.33,5.55,1.44,9.17-.7.88-.59,1.8.25,2.66,1.12,1.13,2.4.7,3.06-.16,4.85-6.31,11.68-3.68,17.84-4.14,2.89-.22,5.15.37,6.38,3.39.62,1.51,1.66,3.15,3.72,2.59,2.07-.56,1.3-2.53,1.18-3.8-.28-2.98.97-4.97,3.09-6.87,3.46-3.1,6.81-6.33,10.05-9.66,4-4.11,3.89-6.5-.17-10.46-1.31-1.27-2.6-2.58-4.04-3.7-2.76-2.14-4.81-4.49-3.96-8.35.16-.71-.03-1.88-.52-2.26-.97-.75-1.79.26-2.55.84-1.05.81-2.38,1.46-3.05,2.52-1.77,2.81-3.31,2-4.98.03.07-.75.13-1.49.2-2.24,0,0,.03-.03.03-.03.93.03,1.89.24,2.68-.5,1.61-.92,2.92-2.18,4.1-3.59,1.16-1.39,2.37-1.98,4.33-1.2,1.98.79,3.25,1.87,2.83,3.99-.88,4.37,1.09,7.13,4.55,9.4,1.5.98,2.72,2.43,3.91,3.82,3.78,4.42,3.78,9.02-.24,13.3-2.95,3.14-6.24,5.96-9.37,8.93-1.32,1.25-2.77,2.4-3.46,4.18,0,1.59,0,3.17,0,4.76-2.98,6.01-7.1,6.48-10.5.9-1.42-2.33-2.9-3.11-5.53-3.07-5.23.08-10.48-.81-14.62,3.89-1.81,2.06-4.64,1.58-6.94.17-2.72-1.67-2.37-4.8-1.52-6.73,1.47-3.32.02-5.02-1.74-7.41-4.4-5.97-8.38-12.25-11.54-19,0-1.19-.02-2.39-.03-3.58.09-.81.05-1.67.3-2.43.25-.74.73-1.5,1.77-1.12.94.35,1.3,1.28.94,2-2.36,4.8.78,7.26,4,9.71Z"/>
  <path class="cls-5" d="m598.48,352.41c.17-.49-.09-1.04-1.05-1.19-.51-.08-.95.07-1.25.31-.28-1.26-1.33-1.54-3.3-.72-4.47,1.86-8.32,4.68-12.05,7.67-1.15.92-1.25,2.25-.92,3.62,1.97.63,3.02-.81,4.28-1.86,3.59-2.98,7.39-5.61,11.99-6.85,0,0,0-.01,0-.02.06.02.12.04.18.04.63.09,1.6.06,2-.55.11-.16.14-.32.12-.46Z"/>
  <path class="cls-2" d="m608.66,353.86c-8.6,1.69-13.75-.05-16.74-5.64-2.48-4.64-1.61-11.48,1.88-14.76,4.02-3.79,11.18-4.66,15.67-1.9,4.86,2.99,7.12,9.15,5.32,14.64-.41,1.24-.99,2.42-1.48,3.63-.62.58-.76,1.29-.58,2.09l-.03.03c-1.76-.13-3.02.75-4.09,2.03l.06-.11Zm3.04-11.33c1-5.04-4.54-9.33-8.8-9.37-4.57-.03-9.05,4.31-9.2,8.76-.15,4.68,4.25,9.04,9.26,9.16,5.26.13,8.68-3.22,8.74-8.55Z"/>
  <path class="cls-3" d="m612.72,352.69c-.18-1.1-.04-2.08.58-2.87-.09,2.15,1.13,1.93,2.09,2.19-.79,1.01-1.75.73-2.68.68Z"/>
  <path class="cls-4" d="m626.73,367.59c-.64,0-.64,1,0,1s.64-1,0-1Z"/>
  <path class="cls-5" d="m626.27,365.39c-3.22,0-3.22,5,0,5s3.22-5,0-5Z"/>
</svg>